<svg xmlns="http://www.w3.org/2000/svg" viewBox="0 0 113.76 104.7"><defs><style>.cls-1{fill:#ed3737;}</style></defs><title>Ресурс 4</title><g id="Слой_2" data-name="Слой 2"><g id="Слой_2-2" data-name="Слой 2"><path class="cls-1" d="M56.88,12.86,51.46,7.11A50.6,50.6,0,0,0,41,1.44c-12.17-4-21.5,1.17-28.5,5.5C5.29,12.94,1.79,20.61.13,28.78-1,43.61,6,50.78,6,50.78l49.5,52.5,1.42,1.42,1.41-1.42,49.5-52.5s7-7.17,5.84-22c-1.67-8.17-5.17-15.84-12.34-21.84-7-4.33-16.33-9.5-28.5-5.5a50.6,50.6,0,0,0-10.5,5.67C58.16,11.48,57.13,12.58,56.88,12.86Z"/></g></g></svg>